<svg id="Capa_1" data-name="Capa 1" xmlns="http://www.w3.org/2000/svg" viewBox="0 0 1000 300"><defs><style>.cls-1{fill:#1d1d1b;}</style></defs><path class="cls-1" d="M195.83,131.16c-4.39,26.08-9.38,55.64-7.05,67.15a1.31,1.31,0,0,1-1,1.54,1.15,1.15,0,0,1-.26,0,1.31,1.31,0,0,1-1.28-1c-2.42-12,2.38-40.51,7-68.1,3.59-21.31,8.07-47.84,5.27-49.88-9-3.69-28.75,26.63-52.78,81.05a1.36,1.36,0,0,1-2.21.3c-.54-.66-.57-.69,2.62-16.35l.26-1.23c.66-2.86,1.53-6.39,2.5-10.35,4.29-17.44,12.27-49.91,9-55.14-.11-.18-.22-.28-.32-.3-2.73-.64-11.62,2.28-35.92,42.36a729.46,729.46,0,0,0-37.25,70.32,1.31,1.31,0,0,1-1.2.77,1.75,1.75,0,0,1-1.25-.65c-.65-.93-1.47-2.09,7.84-28.07.29-.82.49-1.37.55-1.55,1.85-5,3.9-11,6.28-18,6.68-19.59,15.12-44.3,24.74-62.27-.27-.58.2-1.48,2.64-4.7a65.92,65.92,0,0,1,9.88-13.3c.55-.55,1.5-1.48,2.47-.62s1.07.94-5.53,9.4c-1.51,1.94-3.34,4.27-4.73,6.11-.42.72-.84,1.45-1.26,2.2a1.33,1.33,0,0,1-.39.77l-.07.06c-9.79,17.81-18.45,43.2-25.27,63.2-2.39,7-4.45,13-6.29,18,0,.15-.25.71-.56,1.56C89.87,171.21,88.16,176.23,87,180c16.63-34.36,55.85-107.21,71.23-103.68a3.08,3.08,0,0,1,2,1.48c3.54,5.69-2.1,30.28-8.71,57.14-1,4-1.83,7.47-2.49,10.28l-.24,1.21c-.35,1.69-.65,3.2-.93,4.55,17.37-38.08,39-77.7,51.73-72.5C203.94,80.21,201.91,95.08,195.83,131.16Z"/><path class="cls-1" d="M265.89,137.39c-8.31,9-15.6,13.08-21.68,12-7-1.21-10.05-8.59-11.22-11.38a.33.33,0,0,1,0-.06c-1.11.49-3.26,1.73-5.2,2.85-6.53,3.76-15.76,9.07-22.15,9.07a7.55,7.55,0,0,1-4-1c-1.75-1.13-2.44-3.06-2-5.46,1.31-6.74,12.34-17.87,21.39-19.59,4.11-.78,7.35.46,9.35,3.59a1.31,1.31,0,0,1-.4,1.81,1.33,1.33,0,0,1-1.81-.4c-1.41-2.22-3.59-3-6.65-2.43-7.81,1.49-18.18,11.72-19.31,17.52-.35,1.78.29,2.42.8,2.75,4.51,2.79,16.84-4.31,23.47-8.12,5.5-3.17,6.84-3.89,8-3.14.41.28.57.64,1,1.61,1,2.42,3.72,8.84,9.26,9.81,5.13.87,11.63-2.87,19.3-11.21a1.31,1.31,0,0,1,1.93,1.78Z"/><path class="cls-1" d="M301.34,137.1c-2.78,5.34-12.14,13.39-21.18,21.17-1.1.94-2.25,1.93-3.42,2.95-2.9,9-6.67,17.42-11.36,19.77a5.91,5.91,0,0,1-2.69.67,5.74,5.74,0,0,1-2.26-.48,3.21,3.21,0,0,1-2.12-2.49c-.6-3.8,5.61-9.8,16.13-18.94q1.71-5.42,3.43-12.33l.4-1.56c.52-1.88.86-3.8,1.23-5.84.26-1.44.52-2.89.85-4.35C272,146,267.18,149.8,264.24,148.78c-1.5-.51-2.26-2.09-2.26-4.68,0-5.8,6-18.5,12.75-22a6.8,6.8,0,0,1,7.39.27,1.31,1.31,0,0,1,.32,1.82,1.29,1.29,0,0,1-1.82.32,4.2,4.2,0,0,0-4.68-.08c-5.73,3-11.34,14.63-11.34,19.71,0,1.66.36,2.16.49,2.21.67.24,3.84-.24,16.22-16.05,1.42-1.81,1.48-1.88,2.15-1.88a1.39,1.39,0,0,1,1.13.61c.41.61.3,1.29-.45,3a46,46,0,0,0-2.06,8.44c-.36,2-.74,4.08-1.29,6.06l-.38,1.51c-.66,2.68-1.41,5.57-2.25,8.48l.28-.25c8.86-7.61,18-15.49,20.57-20.38a1.3,1.3,0,0,1,1.77-.56A1.32,1.32,0,0,1,301.34,137.1Zm-28.59,27.62c-6.39,5.69-12.2,11.38-11.85,13.55,0,.1,0,.29.54.5a3.12,3.12,0,0,0,2.76-.12C267,177.24,269.86,172.57,272.75,164.72Z"/><path class="cls-1" d="M355.2,137.28c-8.22,11-14.51,16.4-19.19,16.4a5.16,5.16,0,0,1-.79-.06c-1.56-.21-3.72-1.2-5.09-4.74-3.07-7.92-1-25.06,3.06-39.56-5.83,10.76-11.87,21.87-19.86,31.17l-.62.7c-2.22,2.58-6.36,7.37-10.41,7.59H302a4.89,4.89,0,0,1-3.42-1.39c-2.89-2.89-2.19-7.72,1.91-13.26,4.34-5.88,12.92-12.75,17-10.58,1.37.73,2,2.2,1.84,4.39,4.23-6.45,7.95-13.32,11.6-20.06,2.57-4.73,5.21-9.57,8-14.26A30,30,0,0,1,342.5,88s.1-.07.14-.12a1.06,1.06,0,0,1,.21-.16l.22-.1.25-.07a1.92,1.92,0,0,1,.24,0,1.1,1.1,0,0,1,.25,0l.24.1.17.07s0,0,.06,0l.07,0a.83.83,0,0,1,.11.15,1.12,1.12,0,0,1,.17.2,1.57,1.57,0,0,1,.09.23,1,1,0,0,1,.07.24,1,1,0,0,1,0,.24,1,1,0,0,1,0,.25,1.09,1.09,0,0,1-.1.25,1,1,0,0,1-.06.16c-1.18,1.8-2.31,3.65-3.42,5.53-6.88,13.9-12.65,42.47-8.61,52.88.74,1.91,1.72,2.92,3,3.09,2.05.27,7.09-1.33,17.52-15.31a1.32,1.32,0,0,1,1.84-.27A1.3,1.3,0,0,1,355.2,137.28Zm-39.39-5.41c1.46-4.17,1-5.72.51-6a1.39,1.39,0,0,0-.62-.13c-2.43,0-8.71,4-13.09,9.95-1.53,2.08-4.81,7.19-2.19,9.82a2.26,2.26,0,0,0,1.75.65c2.93-.16,6.88-4.73,8.56-6.68l.63-.72q2.38-2.79,4.57-5.79A1.34,1.34,0,0,1,315.81,131.87Z"/><path class="cls-1" d="M415.47,137.39c-8.31,9-15.6,13.08-21.68,12-7-1.21-10.05-8.59-11.22-11.38l0-.06c-1.11.49-3.26,1.73-5.2,2.85-6.53,3.76-15.76,9.07-22.15,9.07a7.55,7.55,0,0,1-4-1c-1.75-1.13-2.44-3.06-2-5.46,1.31-6.74,12.34-17.87,21.39-19.59,4.11-.78,7.35.46,9.35,3.59a1.31,1.31,0,0,1-.4,1.81,1.33,1.33,0,0,1-1.81-.4c-1.41-2.22-3.59-3-6.65-2.43-7.81,1.49-18.18,11.72-19.31,17.52-.35,1.78.29,2.42.8,2.75,4.51,2.79,16.84-4.31,23.47-8.12,5.5-3.17,6.84-3.89,8-3.14.41.28.57.64,1,1.61,1,2.42,3.72,8.84,9.26,9.81,5.13.87,11.63-2.87,19.3-11.21a1.31,1.31,0,0,1,1.93,1.78Z"/><path class="cls-1" d="M573.49,89.09c-11.33,25.28-48.65,105.7-64.65,105.71a4.17,4.17,0,0,1-1.41-.23c-19.35-6.56,6-92.44,6.25-93.31l.33-.92c1.2-3.39,2.28-6.21,3.26-8.55-3.62,3.19-7.47,6-11.23,8.8-2.63,1.91-5.74,4-9,6.09a1.31,1.31,0,1,1-1.41-2.21c3.22-2,6.28-4.12,8.84-6a122.5,122.5,0,0,0,14.25-11.65,17.74,17.74,0,0,1,1.45-1.26c2.35-4.31,3.91-5.15,5.24-5.15a1.73,1.73,0,0,1,1.83,1.11c.49,1.4-.84,2.5-4.15,5.08l-.87.68a112.25,112.25,0,0,0-5.75,13.92l-.31.87c-6.57,21.48-21.31,85.45-7.88,90C515,194.4,537.56,162.85,571.1,88a1.31,1.31,0,0,1,2.39,1.08Z"/><path class="cls-1" d="M601.25,137.45c-5.13,4.8-17.35,11.24-26.41,11.24a13.15,13.15,0,0,1-5.47-1.05c-2.66-1.21-5.79-4.15-5.51-11.19a1.31,1.31,0,1,1,2.61.1c-.17,4.56,1.13,7.41,4,8.72,7.35,3.34,23.2-4.3,29-9.73a1.31,1.31,0,1,1,1.8,1.91Zm-36.46-10.34c-.57-.55-.65-.63.4-3.41a1.25,1.25,0,0,1,.28-.71c.1-.26.21-.54.32-.85a1.31,1.31,0,0,1,2.45.94c-.24.61-.43,1.12-.59,1.55-.24.91-.72,2.44-1.44,2.74a1.34,1.34,0,0,1-.51.11A1.32,1.32,0,0,1,564.79,127.11Z"/><path class="cls-1" d="M630.88,137.32c-6.63,8.33-16.15,15.93-22.64,15.93a6.52,6.52,0,0,1-2.78-.57c-3.89-1.82-5.06-7.42-3.49-16.64-.3.42-.6.83-.91,1.24a1.31,1.31,0,1,1-2.1-1.56A91.75,91.75,0,0,0,607,122.37c6.35-14.63,17.24-37.93,19.93-38.79a1.58,1.58,0,0,1,1.46.33c.68.66.64,1.62-.18,4.49a1.19,1.19,0,0,1-.11.26c-1.17,2.15-2.27,4.36-3.37,6.6a118.22,118.22,0,0,1-6.11,11.29c-3.31,5.25-6.32,11.09-8.57,15.6-.59,1.17-1.16,2.29-1.72,3.35a64.25,64.25,0,0,0-3.41,8.87c-1.82,8.95-1.24,14.6,1.63,15.93,4.62,2.16,15.24-5.81,22.25-14.62a1.32,1.32,0,0,1,2.06,1.64Z"/><path class="cls-1" d="M660.82,137.32c-6.63,8.33-16.15,15.93-22.64,15.93a6.52,6.52,0,0,1-2.78-.57c-3.89-1.82-5.06-7.42-3.49-16.64-.3.42-.6.83-.91,1.24a1.31,1.31,0,0,1-2.1-1.56A91.75,91.75,0,0,0,637,122.37c6.35-14.63,17.24-37.93,19.93-38.79a1.58,1.58,0,0,1,1.46.33c.68.66.64,1.62-.18,4.49a1.19,1.19,0,0,1-.11.26c-1.17,2.15-2.27,4.36-3.37,6.6a118.22,118.22,0,0,1-6.11,11.29c-3.31,5.25-6.32,11.09-8.57,15.6-.59,1.17-1.16,2.29-1.73,3.35a66.55,66.55,0,0,0-3.4,8.87c-1.82,8.95-1.24,14.6,1.63,15.93,4.62,2.16,15.24-5.81,22.25-14.62a1.32,1.32,0,0,1,2.06,1.64Z"/><path class="cls-1" d="M721.46,137.39c-8.31,9-15.59,13.08-21.68,12-6.94-1.21-10-8.59-11.21-11.38a.33.33,0,0,1,0-.06c-1.11.49-3.26,1.73-5.21,2.85-6.53,3.76-15.75,9.07-22.15,9.07a7.55,7.55,0,0,1-4-1c-1.74-1.13-2.43-3.06-2-5.46,1.32-6.74,12.34-17.87,21.39-19.59,4.12-.78,7.36.46,9.36,3.59a1.31,1.31,0,0,1-.4,1.81,1.33,1.33,0,0,1-1.81-.4c-1.41-2.22-3.59-3-6.66-2.43-7.8,1.49-18.17,11.72-19.3,17.52-.35,1.78.29,2.42.79,2.75,4.52,2.79,16.85-4.31,23.48-8.12,5.5-3.17,6.84-3.89,8-3.14.42.28.57.64,1,1.61,1,2.42,3.71,8.84,9.25,9.81,5.14.87,11.64-2.87,19.3-11.21a1.31,1.31,0,0,1,1.93,1.78Z"/><path class="cls-1" d="M750.72,137.31c-3.69,4.62-17.86,10.58-25.83,9.66-2.29,8.24-8.61,29.72-12.4,31.54a2,2,0,0,1-.88.21,1.88,1.88,0,0,1-.83-.2c-3.25-1.47-1.82-8.52.23-16.88l.39-1.61c4.7-19,30-69.19,36.72-70.15a1.35,1.35,0,0,1,1.32.62c.45.75.28,1.08-1.36,4.26-.39.75-.75,1.44-.87,1.73a1.31,1.31,0,0,1-2.55-.08c-5.23,7.34-14.28,23.76-21.37,39.39,1.93,1.07,3,5,2.46,8,0,0-.06.26-.17.66,6.92.67,19.93-4.82,23.1-8.78a1.31,1.31,0,0,1,1.84-.2A1.28,1.28,0,0,1,750.72,137.31Zm-28.31,9.05-.22-.09a5.32,5.32,0,0,1-2.47-2.25A123.72,123.72,0,0,0,714,160.65l-.39,1.62c-2.37,9.64-2.31,12.7-1.88,13.6C714.27,173,720.14,154.59,722.41,146.36Zm-.08-8a7.41,7.41,0,0,0-.51,1.74c-.44,2.3.39,3.17,1.26,3.63,0-.18.07-.34.11-.49A7.65,7.65,0,0,0,722.33,138.41Z"/><path class="cls-1" d="M811.16,137.39c-8.31,9-15.59,13.08-21.67,12-7-1.21-10.06-8.59-11.22-11.38l0-.06c-1.11.49-3.26,1.73-5.21,2.85-6.53,3.76-15.75,9.07-22.15,9.07a7.57,7.57,0,0,1-4-1c-1.74-1.13-2.43-3.06-2-5.46,1.32-6.74,12.34-17.87,21.39-19.59,4.12-.78,7.36.46,9.36,3.59a1.31,1.31,0,0,1-.4,1.81,1.33,1.33,0,0,1-1.81-.4c-1.41-2.22-3.59-3-6.66-2.43-7.81,1.49-18.17,11.72-19.3,17.52-.35,1.78.29,2.42.79,2.75,4.52,2.79,16.85-4.31,23.47-8.12,5.51-3.17,6.85-3.89,8-3.14.42.28.57.64,1,1.61,1,2.42,3.71,8.84,9.25,9.81,5.13.87,11.64-2.87,19.3-11.21a1.31,1.31,0,0,1,1.93,1.78Z"/><path class="cls-1" d="M880.56,137.53c-8.61,6.81-15.17,10.06-20.36,10.06a11.43,11.43,0,0,1-2.21-.21c-5.19-1-7.73-5.58-10-9.59-2.67-4.77-4.38-7.42-8.26-6.32-3,.89-6.26,3.86-9.74,7-5.24,4.72-10.67,9.6-16.47,8.75a6,6,0,0,1-4.18-2.15c-1.46-2-1-4.63-.66-7.21.07-.51.15-1,.21-1.52a1.31,1.31,0,1,1,2.6.32c-.06.53-.14,1.06-.22,1.59-.33,2.14-.64,4.17.17,5.25a3.51,3.51,0,0,0,2.46,1.13c4.61.68,9.55-3.79,14.33-8.11C832,133.18,835.49,130,839,129c6.09-1.73,8.84,3.21,11.27,7.56,2.07,3.69,4.2,7.5,8.2,8.3,4.63.93,11.33-2.13,20.44-9.34a1.31,1.31,0,1,1,1.62,2.06Z"/><path class="cls-1" d="M919.35,137.32c-4.82,6-16.62,11.47-26.19,11.47a20.19,20.19,0,0,1-5.07-.6c-5.55-1.46-9-5.42-10-11.45,0,0,0,0,0-.05-1.24-7.57,6.67-18.92,12.5-20,2.57-.49,4.49,1,5.13,4.1,1.67,7.54-8.45,13.87-14.84,16.54a10.38,10.38,0,0,0,7.9,8.34c9,2.37,23.42-3.61,28.55-10a1.31,1.31,0,1,1,2,1.64Zm-38.79-2.73c6.05-2.68,13.74-8,12.58-13.27-.39-1.83-1.1-2.13-1.65-2.13a2.55,2.55,0,0,0-.43,0C887.27,120,880.8,128.26,880.56,134.59Z"/><path class="cls-1" d="M155.56,236.51V209.12h7.84a15.41,15.41,0,0,1,4,.46,7.58,7.58,0,0,1,2.82,1.37,5.58,5.58,0,0,1,1.67,2.19,7.64,7.64,0,0,1,.55,3,6,6,0,0,1-.38,2.09A6.27,6.27,0,0,1,171,220a7,7,0,0,1-1.74,1.48,8.34,8.34,0,0,1-2.36,1,8.79,8.79,0,0,1,4.95,2.14,5.84,5.84,0,0,1,1.73,4.4,7.72,7.72,0,0,1-.61,3.14,6.47,6.47,0,0,1-1.79,2.36,8.31,8.31,0,0,1-2.89,1.48,13.63,13.63,0,0,1-3.89.51Zm2-14.58h5.91a9.54,9.54,0,0,0,3.22-.48,6.45,6.45,0,0,0,2.2-1.28,5,5,0,0,0,1.26-1.8,5.48,5.48,0,0,0,.4-2.07,5.09,5.09,0,0,0-1.74-4.19c-1.16-1-3-1.42-5.38-1.42h-5.87Zm0,1.46v11.53h6.83a8.24,8.24,0,0,0,5.43-1.55,6,6,0,0,0,1.34-6.72,4.83,4.83,0,0,0-1.42-1.76,6.43,6.43,0,0,0-2.27-1.12,11,11,0,0,0-3.06-.38Z"/><path class="cls-1" d="M186.35,210.61a1.44,1.44,0,0,1-.15.65,2.19,2.19,0,0,1-.37.53,2,2,0,0,1-.54.37,1.65,1.65,0,0,1-.66.13,1.57,1.57,0,0,1-.65-.13,1.73,1.73,0,0,1-.54-.37,1.75,1.75,0,0,1-.37-.53,1.57,1.57,0,0,1-.13-.65,1.67,1.67,0,0,1,.13-.67,1.62,1.62,0,0,1,.37-.55,1.71,1.71,0,0,1,1.19-.51,1.66,1.66,0,0,1,.66.14,1.79,1.79,0,0,1,.54.37,2,2,0,0,1,.37.55A1.53,1.53,0,0,1,186.35,210.61Zm-.81,6.64v19.26h-1.83V217.25Z"/><path class="cls-1" d="M203.46,216.94a9,9,0,0,1,3.68.71,7.46,7.46,0,0,1,2.75,2,8.9,8.9,0,0,1,1.7,3.13,14.47,14.47,0,0,1,0,8.18,8.9,8.9,0,0,1-1.7,3.11,7.46,7.46,0,0,1-2.75,2,10.19,10.19,0,0,1-7.37,0,7.54,7.54,0,0,1-2.75-2A8.93,8.93,0,0,1,195.3,231a14.71,14.71,0,0,1,0-8.18,8.94,8.94,0,0,1,1.72-3.13,7.54,7.54,0,0,1,2.75-2A9,9,0,0,1,203.46,216.94Zm0,18.37a7.12,7.12,0,0,0,3-.59,5.71,5.71,0,0,0,2.14-1.69,7.53,7.53,0,0,0,1.28-2.67,14.67,14.67,0,0,0,0-7,7.63,7.63,0,0,0-1.28-2.69,5.76,5.76,0,0,0-2.14-1.71,7,7,0,0,0-3-.6,7,7,0,0,0-3,.6,5.73,5.73,0,0,0-2.13,1.71,7.82,7.82,0,0,0-1.29,2.69,14,14,0,0,0,0,7,7.72,7.72,0,0,0,1.29,2.67,5.68,5.68,0,0,0,2.13,1.69A7.2,7.2,0,0,0,203.46,235.31Z"/><path class="cls-1" d="M234.42,236.51a.52.52,0,0,1-.55-.5l-.19-3a10.28,10.28,0,0,1-3,2.77,7.32,7.32,0,0,1-3.83,1,6.66,6.66,0,0,1-5.5-2.46c-1.32-1.64-2-4.09-2-7.37A13.5,13.5,0,0,1,220,223a9.35,9.35,0,0,1,1.61-3.18,7.61,7.61,0,0,1,6.2-2.89,7.25,7.25,0,0,1,3.37.73,7,7,0,0,1,2.47,2.11V208.34h1.83v28.17Zm-7-1.24a6.34,6.34,0,0,0,3.46-1,10,10,0,0,0,2.75-2.75V221.37a6.7,6.7,0,0,0-2.46-2.32,6.62,6.62,0,0,0-3-.68,6.76,6.76,0,0,0-3,.62,5.83,5.83,0,0,0-2.13,1.75,8,8,0,0,0-1.29,2.71,13,13,0,0,0-.44,3.48q0,4.29,1.58,6.32A5.42,5.42,0,0,0,227.39,235.27Z"/><path class="cls-1" d="M252.93,216.94a7.92,7.92,0,0,1,3,.56,6.59,6.59,0,0,1,2.39,1.64,7.52,7.52,0,0,1,1.58,2.64,10.47,10.47,0,0,1,.56,3.6,1,1,0,0,1-.12.58.47.47,0,0,1-.39.16H246.12v.36a13,13,0,0,0,.5,3.82,7.83,7.83,0,0,0,1.42,2.76,5.88,5.88,0,0,0,2.23,1.67,7.43,7.43,0,0,0,2.93.56,8.48,8.48,0,0,0,2.5-.32,9.27,9.27,0,0,0,1.78-.71,12.15,12.15,0,0,0,1.15-.72,1.34,1.34,0,0,1,.61-.32.47.47,0,0,1,.39.19l.5.62a5.46,5.46,0,0,1-1.22,1.09,9.33,9.33,0,0,1-1.7.86,12,12,0,0,1-2,.57,11.11,11.11,0,0,1-2.15.21,9.21,9.21,0,0,1-3.58-.68,7.66,7.66,0,0,1-2.77-2,9.21,9.21,0,0,1-1.79-3.22,13.91,13.91,0,0,1-.64-4.37,12,12,0,0,1,.59-3.82,8.66,8.66,0,0,1,1.7-3,7.49,7.49,0,0,1,2.71-2A8.84,8.84,0,0,1,252.93,216.94Zm0,1.37a7.2,7.2,0,0,0-2.66.47,5.78,5.78,0,0,0-2,1.33,7,7,0,0,0-1.39,2.09,9.94,9.94,0,0,0-.7,2.73H258.8a8.53,8.53,0,0,0-.42-2.77,5.88,5.88,0,0,0-1.19-2.08,5.16,5.16,0,0,0-1.85-1.31A5.94,5.94,0,0,0,253,218.31Z"/><path class="cls-1" d="M281.84,219.82a1.41,1.41,0,0,1-.18.17.43.43,0,0,1-.24.07,1,1,0,0,1-.53-.27,8.06,8.06,0,0,0-.9-.57,8.26,8.26,0,0,0-1.39-.57,7.79,7.79,0,0,0-5,.33,5.82,5.82,0,0,0-2.15,1.69,7.75,7.75,0,0,0-1.34,2.68,13.86,13.86,0,0,0,0,7.12,7.46,7.46,0,0,0,1.34,2.64,5.56,5.56,0,0,0,2.09,1.64,6.61,6.61,0,0,0,2.74.56,7.08,7.08,0,0,0,2.32-.33,8.29,8.29,0,0,0,1.54-.71,7.44,7.44,0,0,0,1-.72,1,1,0,0,1,.57-.33.46.46,0,0,1,.38.19l.5.62a5.48,5.48,0,0,1-1.11,1.09A8,8,0,0,1,280,236a9.8,9.8,0,0,1-1.83.57,10,10,0,0,1-2.07.2,8.23,8.23,0,0,1-3.34-.66,7.31,7.31,0,0,1-2.6-1.94,9.12,9.12,0,0,1-1.7-3.11,13.43,13.43,0,0,1-.6-4.18,13.17,13.17,0,0,1,.58-4,8.88,8.88,0,0,1,1.68-3.13,7.64,7.64,0,0,1,2.71-2.05,9,9,0,0,1,3.69-.72,8.62,8.62,0,0,1,3.32.6,8.19,8.19,0,0,1,2.53,1.62Z"/><path class="cls-1" d="M297.9,216.94a9,9,0,0,1,3.68.71,7.46,7.46,0,0,1,2.75,2,8.9,8.9,0,0,1,1.7,3.13,14.47,14.47,0,0,1,0,8.18,8.9,8.9,0,0,1-1.7,3.11,7.46,7.46,0,0,1-2.75,2,10.19,10.19,0,0,1-7.37,0,7.46,7.46,0,0,1-2.75-2,8.78,8.78,0,0,1-1.72-3.11,14.71,14.71,0,0,1,0-8.18,8.78,8.78,0,0,1,1.72-3.13,7.46,7.46,0,0,1,2.75-2A9,9,0,0,1,297.9,216.94Zm0,18.37a7.12,7.12,0,0,0,3-.59A5.79,5.79,0,0,0,303,233a7.71,7.71,0,0,0,1.28-2.67,14.67,14.67,0,0,0,0-7A7.81,7.81,0,0,0,303,220.7a5.84,5.84,0,0,0-2.14-1.71,7.78,7.78,0,0,0-6,0,5.73,5.73,0,0,0-2.13,1.71,7.82,7.82,0,0,0-1.29,2.69,14,14,0,0,0,0,7,7.72,7.72,0,0,0,1.29,2.67,5.68,5.68,0,0,0,2.13,1.69A7.17,7.17,0,0,0,297.9,235.31Z"/><path class="cls-1" d="M328.86,236.51a.51.51,0,0,1-.55-.5l-.19-3a10.28,10.28,0,0,1-3,2.77,7.32,7.32,0,0,1-3.83,1,6.66,6.66,0,0,1-5.5-2.46c-1.32-1.64-2-4.09-2-7.37a13.84,13.84,0,0,1,.55-3.94,9.55,9.55,0,0,1,1.62-3.18,7.94,7.94,0,0,1,2.62-2.12,8,8,0,0,1,3.58-.77,7.25,7.25,0,0,1,3.37.73,7.08,7.08,0,0,1,2.47,2.11V208.34h1.83v28.17Zm-7-1.24a6.29,6.29,0,0,0,3.45-1,9.88,9.88,0,0,0,2.76-2.75V221.37a6.78,6.78,0,0,0-2.46-2.32,6.62,6.62,0,0,0-3-.68,6.73,6.73,0,0,0-3,.62,5.83,5.83,0,0,0-2.13,1.75,7.85,7.85,0,0,0-1.3,2.71,13.48,13.48,0,0,0-.43,3.48q0,4.29,1.58,6.32A5.42,5.42,0,0,0,321.83,235.27Z"/><path class="cls-1" d="M343.33,210.61a1.44,1.44,0,0,1-.15.65,2,2,0,0,1-.38.53,1.8,1.8,0,0,1-.53.37,1.65,1.65,0,0,1-.66.13,1.57,1.57,0,0,1-.65-.13,1.73,1.73,0,0,1-.54-.37,1.75,1.75,0,0,1-.37-.53,1.57,1.57,0,0,1-.13-.65,1.67,1.67,0,0,1,.13-.67,1.62,1.62,0,0,1,.37-.55,1.71,1.71,0,0,1,1.19-.51,1.66,1.66,0,0,1,.66.14,1.64,1.64,0,0,1,.53.37,1.8,1.8,0,0,1,.38.55A1.53,1.53,0,0,1,343.33,210.61Zm-.81,6.64v19.26h-1.83V217.25Z"/><path class="cls-1" d="M353.85,236.51V219.26l-2.69-.17c-.37,0-.56-.19-.56-.49v-.75h3.25V216.2a9.48,9.48,0,0,1,.52-3.21,6.6,6.6,0,0,1,1.52-2.43A6.72,6.72,0,0,1,358.3,209a9.39,9.39,0,0,1,3.25-.53,8.6,8.6,0,0,1,1.32.11,4.86,4.86,0,0,1,1.15.31l-.08.93c0,.13-.1.2-.27.2a5,5,0,0,1-.62-.07,6.19,6.19,0,0,0-1.05-.07,6.54,6.54,0,0,0-4.7,1.57,6.3,6.3,0,0,0-1.66,4.78v1.59h11.23v18.66H365V219.22h-9.36v17.29Z"/><path class="cls-1" d="M390.12,219.82a1.41,1.41,0,0,1-.18.17.43.43,0,0,1-.24.07,1,1,0,0,1-.53-.27,8.06,8.06,0,0,0-.9-.57,8.26,8.26,0,0,0-1.39-.57,7.05,7.05,0,0,0-2-.26,7,7,0,0,0-2.94.59,5.82,5.82,0,0,0-2.15,1.69,7.58,7.58,0,0,0-1.34,2.68,13.58,13.58,0,0,0,0,7.12,7.62,7.62,0,0,0,1.33,2.64,5.67,5.67,0,0,0,2.1,1.64,6.61,6.61,0,0,0,2.74.56,7.08,7.08,0,0,0,2.32-.33,8.29,8.29,0,0,0,1.54-.71,7.44,7.44,0,0,0,1-.72,1,1,0,0,1,.57-.33.46.46,0,0,1,.38.19l.5.62a5.75,5.75,0,0,1-1.11,1.09,8,8,0,0,1-1.53.87,9.8,9.8,0,0,1-1.83.57,10,10,0,0,1-2.07.2,8.23,8.23,0,0,1-3.34-.66,7.31,7.31,0,0,1-2.6-1.94,9.12,9.12,0,0,1-1.7-3.11,13.43,13.43,0,0,1-.6-4.18,13.17,13.17,0,0,1,.58-4,8.88,8.88,0,0,1,1.68-3.13,7.64,7.64,0,0,1,2.71-2.05,9,9,0,0,1,3.69-.72,8.66,8.66,0,0,1,3.32.6,8.19,8.19,0,0,1,2.53,1.62Z"/><path class="cls-1" d="M411.1,236.51a.66.66,0,0,1-.71-.54l-.27-2.46a19.35,19.35,0,0,1-1.57,1.39,9,9,0,0,1-1.62,1,8.45,8.45,0,0,1-1.83.65,9.75,9.75,0,0,1-2.16.22,6.5,6.5,0,0,1-1.91-.29,4.62,4.62,0,0,1-1.63-.89,4.3,4.3,0,0,1-1.15-1.54,5.31,5.31,0,0,1-.43-2.25,4,4,0,0,1,.69-2.27,5.8,5.8,0,0,1,2.17-1.82,14.38,14.38,0,0,1,3.79-1.24A32.62,32.62,0,0,1,410,226v-2a6.52,6.52,0,0,0-1.14-4.12,4.1,4.1,0,0,0-3.4-1.44,6.37,6.37,0,0,0-2.36.39,8.33,8.33,0,0,0-1.64.85,9.94,9.94,0,0,0-1.1.85,1.18,1.18,0,0,1-.71.39.63.63,0,0,1-.58-.35l-.33-.56a11.21,11.21,0,0,1,3.16-2.29,8.82,8.82,0,0,1,3.75-.77,6.81,6.81,0,0,1,2.7.49,4.87,4.87,0,0,1,1.91,1.42,6.16,6.16,0,0,1,1.15,2.22,10.23,10.23,0,0,1,.38,2.92v12.54Zm-7.7-1a7.73,7.73,0,0,0,2.05-.25,7.57,7.57,0,0,0,1.74-.67,8.86,8.86,0,0,0,1.49-1c.46-.4.91-.83,1.36-1.3v-5a34.55,34.55,0,0,0-4.7.41,14.14,14.14,0,0,0-3.26.92,4.73,4.73,0,0,0-1.88,1.39,2.9,2.9,0,0,0-.61,1.83,4.08,4.08,0,0,0,.32,1.67,3.25,3.25,0,0,0,.84,1.16,3.12,3.12,0,0,0,1.21.67A4.92,4.92,0,0,0,403.4,235.49Z"/><path class="cls-1" d="M434.07,219.82l-.19.17a.38.38,0,0,1-.24.07,1,1,0,0,1-.52-.27,9.12,9.12,0,0,0-.9-.57,8.4,8.4,0,0,0-1.4-.57,7.76,7.76,0,0,0-5,.33,5.78,5.78,0,0,0-2.16,1.69,7.93,7.93,0,0,0-1.34,2.68,13.86,13.86,0,0,0,0,7.12,7.63,7.63,0,0,0,1.34,2.64,5.67,5.67,0,0,0,2.1,1.64,6.56,6.56,0,0,0,2.73.56,7,7,0,0,0,2.32-.33,7.72,7.72,0,0,0,1.54-.71,7,7,0,0,0,1-.72,1,1,0,0,1,.56-.33.47.47,0,0,1,.39.19l.5.62a5.82,5.82,0,0,1-1.12,1.09,7.94,7.94,0,0,1-1.52.87,9.83,9.83,0,0,1-3.91.77,8.26,8.26,0,0,1-3.34-.66,7.49,7.49,0,0,1-2.6-1.94,9.1,9.1,0,0,1-1.69-3.11,14.46,14.46,0,0,1,0-8.21,9.06,9.06,0,0,1,1.69-3.13,7.55,7.55,0,0,1,2.71-2.05,8.93,8.93,0,0,1,3.69-.72,8.66,8.66,0,0,1,3.32.6,8.19,8.19,0,0,1,2.53,1.62Z"/><path class="cls-1" d="M446,210.61a1.58,1.58,0,0,1-.14.65,2,2,0,0,1-.38.53,1.73,1.73,0,0,1-.54.37,1.57,1.57,0,0,1-.65.13,1.65,1.65,0,0,1-.66-.13,1.8,1.8,0,0,1-.53-.37,1.75,1.75,0,0,1-.37-.53,1.57,1.57,0,0,1-.13-.65,1.67,1.67,0,0,1,.13-.67,1.62,1.62,0,0,1,.37-.55,1.64,1.64,0,0,1,.53-.37,1.66,1.66,0,0,1,.66-.14,1.71,1.71,0,0,1,1.19.51,1.8,1.8,0,0,1,.38.55A1.67,1.67,0,0,1,446,210.61Zm-.81,6.64v19.26h-1.82V217.25Z"/><path class="cls-1" d="M463.12,216.94a9,9,0,0,1,3.68.71,7.42,7.42,0,0,1,2.74,2,8.76,8.76,0,0,1,1.71,3.13,14.47,14.47,0,0,1,0,8.18,8.76,8.76,0,0,1-1.71,3.11,7.42,7.42,0,0,1-2.74,2,10.19,10.19,0,0,1-7.37,0,7.46,7.46,0,0,1-2.75-2A8.78,8.78,0,0,1,455,231a14.47,14.47,0,0,1,0-8.18,8.78,8.78,0,0,1,1.72-3.13,7.46,7.46,0,0,1,2.75-2A9,9,0,0,1,463.12,216.94Zm0,18.37a7.15,7.15,0,0,0,3-.59,5.68,5.68,0,0,0,2.13-1.69,7.55,7.55,0,0,0,1.29-2.67,14.67,14.67,0,0,0,0-7,7.65,7.65,0,0,0-1.29-2.69,5.73,5.73,0,0,0-2.13-1.71,7.78,7.78,0,0,0-6,0A5.84,5.84,0,0,0,458,220.7a7.63,7.63,0,0,0-1.28,2.69,14,14,0,0,0,0,7A7.53,7.53,0,0,0,458,233a5.79,5.79,0,0,0,2.14,1.69A7.14,7.14,0,0,0,463.12,235.31Zm4.34-26.5-4.15,4.9a1,1,0,0,1-.32.26,1.14,1.14,0,0,1-.39.06h-1.1l3-4.6a1.34,1.34,0,0,1,.44-.49,1.45,1.45,0,0,1,.7-.13Z"/><path class="cls-1" d="M480.5,236.51V217.25h1a.52.52,0,0,1,.58.48l.17,2.91A10.62,10.62,0,0,1,485.3,218a7.55,7.55,0,0,1,3.88-1,7.26,7.26,0,0,1,2.78.5,5.13,5.13,0,0,1,2,1.45,6.49,6.49,0,0,1,1.2,2.29,10.42,10.42,0,0,1,.4,3v12.31h-1.83V224.2a6.62,6.62,0,0,0-1.23-4.25,4.53,4.53,0,0,0-3.77-1.54,6.69,6.69,0,0,0-3.51,1,10.1,10.1,0,0,0-2.88,2.68v14.44Z"/><path class="cls-1" d="M515.26,224.24h9v1.57h-9Z"/><path class="cls-1" d="M561.63,209.12v1.64H547.29v11.52h12.42v1.65H547.29v12.58h-2V209.12Z"/><path class="cls-1" d="M572.63,208.34v28.17H570.8V208.34Z"/><path class="cls-1" d="M590.55,216.94a9,9,0,0,1,3.68.71,7.46,7.46,0,0,1,2.75,2,8.9,8.9,0,0,1,1.7,3.13,14.47,14.47,0,0,1,0,8.18,8.9,8.9,0,0,1-1.7,3.11,7.46,7.46,0,0,1-2.75,2,10.19,10.19,0,0,1-7.37,0,7.54,7.54,0,0,1-2.75-2,8.93,8.93,0,0,1-1.72-3.11,14.71,14.71,0,0,1,0-8.18,8.94,8.94,0,0,1,1.72-3.13,7.54,7.54,0,0,1,2.75-2A9,9,0,0,1,590.55,216.94Zm0,18.37a7.12,7.12,0,0,0,3-.59,5.71,5.71,0,0,0,2.14-1.69,7.53,7.53,0,0,0,1.28-2.67,14.67,14.67,0,0,0,0-7,7.63,7.63,0,0,0-1.28-2.69,5.76,5.76,0,0,0-2.14-1.71,7.78,7.78,0,0,0-6,0,5.73,5.73,0,0,0-2.13,1.71,7.82,7.82,0,0,0-1.29,2.69,14.34,14.34,0,0,0,0,7,7.72,7.72,0,0,0,1.29,2.67,5.68,5.68,0,0,0,2.13,1.69A7.17,7.17,0,0,0,590.55,235.31Z"/><path class="cls-1" d="M607.93,236.51V217.25h1a.66.66,0,0,1,.47.13.71.71,0,0,1,.17.47l.15,4.06a9.22,9.22,0,0,1,2.46-3.66,5.61,5.61,0,0,1,3.8-1.33,6.55,6.55,0,0,1,1.59.18,6.17,6.17,0,0,1,1.39.54l-.25,1.27a.35.35,0,0,1-.39.31,1,1,0,0,1-.32-.07c-.14-.06-.32-.11-.53-.18a6.79,6.79,0,0,0-.78-.17,6.64,6.64,0,0,0-1.06-.08,4.89,4.89,0,0,0-3.57,1.36,9.66,9.66,0,0,0-2.26,3.91v12.52Z"/><path class="cls-1" d="M634.28,216.94a8,8,0,0,1,3,.56,6.64,6.64,0,0,1,2.38,1.64,7.38,7.38,0,0,1,1.58,2.64,10.46,10.46,0,0,1,.57,3.6.92.92,0,0,1-.13.58.47.47,0,0,1-.39.16H627.47v.36a13,13,0,0,0,.5,3.82,8,8,0,0,0,1.42,2.76,5.88,5.88,0,0,0,2.23,1.67,7.47,7.47,0,0,0,2.93.56,8.44,8.44,0,0,0,2.5-.32,9.27,9.27,0,0,0,1.78-.71,10,10,0,0,0,1.15-.72,1.32,1.32,0,0,1,.62-.32.46.46,0,0,1,.38.19l.5.62a5.25,5.25,0,0,1-1.22,1.09,9,9,0,0,1-1.7.86,11.68,11.68,0,0,1-2,.57,11.09,11.09,0,0,1-2.14.21,9.17,9.17,0,0,1-3.58-.68,7.61,7.61,0,0,1-2.78-2,9.21,9.21,0,0,1-1.79-3.22,13.92,13.92,0,0,1-.63-4.37,11.72,11.72,0,0,1,.59-3.82,8.64,8.64,0,0,1,1.69-3,7.58,7.58,0,0,1,2.71-2A8.84,8.84,0,0,1,634.28,216.94Zm0,1.37a7.11,7.11,0,0,0-2.65.47,5.82,5.82,0,0,0-2,1.33,6.79,6.79,0,0,0-1.38,2.09,9.6,9.6,0,0,0-.71,2.73h12.61a8.53,8.53,0,0,0-.42-2.77,5.88,5.88,0,0,0-1.19-2.08,5.08,5.08,0,0,0-1.85-1.31A5.91,5.91,0,0,0,634.31,218.31Z"/><path class="cls-1" d="M661.14,219.65a.47.47,0,0,1-.43.27,1.07,1.07,0,0,1-.55-.24,9,9,0,0,0-.88-.54,7.26,7.26,0,0,0-1.35-.55,6.83,6.83,0,0,0-1.95-.24,5.69,5.69,0,0,0-1.9.3,4.75,4.75,0,0,0-1.46.8,3.77,3.77,0,0,0-1,1.17,3.1,3.1,0,0,0-.33,1.4,2.38,2.38,0,0,0,.46,1.51,3.93,3.93,0,0,0,1.21,1,9,9,0,0,0,1.71.73c.63.21,1.28.42,1.95.62s1.32.44,2,.69a7,7,0,0,1,1.71.94,4.42,4.42,0,0,1,1.21,1.37,3.94,3.94,0,0,1,.46,2,6,6,0,0,1-.45,2.34,5.36,5.36,0,0,1-1.31,1.88,6.2,6.2,0,0,1-2.11,1.26,8.11,8.11,0,0,1-2.85.46,8.61,8.61,0,0,1-3.48-.65,9.57,9.57,0,0,1-2.62-1.69l.44-.66a.81.81,0,0,1,.22-.23.56.56,0,0,1,.32-.08,1,1,0,0,1,.62.31,7.23,7.23,0,0,0,1,.67,7.86,7.86,0,0,0,1.47.67,6.67,6.67,0,0,0,2.16.31,6.36,6.36,0,0,0,2.14-.34,4.67,4.67,0,0,0,1.54-.92,3.79,3.79,0,0,0,.93-1.37,4.37,4.37,0,0,0,.32-1.65,2.74,2.74,0,0,0-.46-1.61,3.77,3.77,0,0,0-1.22-1.08,8.56,8.56,0,0,0-1.7-.76l-2-.62c-.68-.2-1.33-.43-2-.68a6.79,6.79,0,0,1-1.7-.93,4.26,4.26,0,0,1-1.21-1.36,4,4,0,0,1-.46-2,4.54,4.54,0,0,1,.44-2,4.82,4.82,0,0,1,1.26-1.66,6.23,6.23,0,0,1,2-1.15,7.78,7.78,0,0,1,2.64-.42,8.82,8.82,0,0,1,3.11.51,7.65,7.65,0,0,1,2.49,1.56Z"/><path class="cls-1" d="M695.86,236.51a.52.52,0,0,1-.56-.5l-.19-3a10.28,10.28,0,0,1-3,2.77,7.31,7.31,0,0,1-3.82,1,6.67,6.67,0,0,1-5.51-2.46c-1.31-1.64-2-4.09-2-7.37a13.5,13.5,0,0,1,.55-3.94,9.19,9.19,0,0,1,1.62-3.18,7.74,7.74,0,0,1,2.62-2.12,8,8,0,0,1,3.57-.77,7.29,7.29,0,0,1,3.38.73,7,7,0,0,1,2.46,2.11V208.34h1.83v28.17Zm-7-1.24a6.34,6.34,0,0,0,3.45-1,10,10,0,0,0,2.75-2.75V221.37a6.77,6.77,0,0,0-8.46-2.38,5.83,5.83,0,0,0-2.13,1.75,8,8,0,0,0-1.29,2.71,13,13,0,0,0-.44,3.48q0,4.29,1.58,6.32A5.43,5.43,0,0,0,688.83,235.27Z"/><path class="cls-1" d="M714.36,216.94a8,8,0,0,1,3,.56,6.64,6.64,0,0,1,2.38,1.64,7.38,7.38,0,0,1,1.58,2.64,10.46,10.46,0,0,1,.57,3.6.92.92,0,0,1-.13.58.47.47,0,0,1-.39.16H707.55v.36a13,13,0,0,0,.5,3.82,8,8,0,0,0,1.42,2.76,5.88,5.88,0,0,0,2.23,1.67,7.47,7.47,0,0,0,2.93.56,8.44,8.44,0,0,0,2.5-.32,9.27,9.27,0,0,0,1.78-.71,11,11,0,0,0,1.15-.72,1.32,1.32,0,0,1,.62-.32.46.46,0,0,1,.38.19l.5.62a5.25,5.25,0,0,1-1.22,1.09,9,9,0,0,1-1.7.86,11.68,11.68,0,0,1-2,.57,11.09,11.09,0,0,1-2.14.21,9.17,9.17,0,0,1-3.58-.68,7.61,7.61,0,0,1-2.78-2,9.21,9.21,0,0,1-1.79-3.22,13.92,13.92,0,0,1-.63-4.37,12,12,0,0,1,.58-3.82,8.82,8.82,0,0,1,1.7-3,7.58,7.58,0,0,1,2.71-2A8.84,8.84,0,0,1,714.36,216.94Zm0,1.37a7.11,7.11,0,0,0-2.65.47,5.73,5.73,0,0,0-2,1.33,7,7,0,0,0-1.39,2.09,9.94,9.94,0,0,0-.7,2.73h12.61a8.53,8.53,0,0,0-.42-2.77,5.88,5.88,0,0,0-1.19-2.08,5.08,5.08,0,0,0-1.85-1.31A5.94,5.94,0,0,0,714.39,218.31Z"/><path class="cls-1" d="M742.87,236.51V209.12h7.83a15.49,15.49,0,0,1,4,.46,7.74,7.74,0,0,1,2.82,1.37,5.56,5.56,0,0,1,1.66,2.19,7.46,7.46,0,0,1,.55,3,5.73,5.73,0,0,1-.38,2.09,6.46,6.46,0,0,1-1.08,1.86,7.4,7.4,0,0,1-1.74,1.48,8.46,8.46,0,0,1-2.36,1,8.79,8.79,0,0,1,4.94,2.14,5.81,5.81,0,0,1,1.74,4.4,7.72,7.72,0,0,1-.62,3.14,6.47,6.47,0,0,1-1.79,2.36,8.13,8.13,0,0,1-2.89,1.48,13.63,13.63,0,0,1-3.89.51Zm2-14.58h5.91a9.64,9.64,0,0,0,3.23-.48,6.31,6.31,0,0,0,2.19-1.28,5,5,0,0,0,1.26-1.8,5.5,5.5,0,0,0,.41-2.07,5.07,5.07,0,0,0-1.75-4.19q-1.74-1.43-5.38-1.42h-5.87Zm0,1.46v11.53h6.84a8.25,8.25,0,0,0,5.43-1.55,5.47,5.47,0,0,0,1.82-4.39,5.34,5.34,0,0,0-.49-2.33,4.81,4.81,0,0,0-1.41-1.76,6.61,6.61,0,0,0-2.27-1.12,11,11,0,0,0-3.06-.38Z"/><path class="cls-1" d="M782.7,236.51A.66.66,0,0,1,782,236l-.27-2.46a17.72,17.72,0,0,1-1.56,1.39,9,9,0,0,1-1.63,1,8.26,8.26,0,0,1-1.83.65,9.63,9.63,0,0,1-2.16.22,6.44,6.44,0,0,1-1.9-.29,4.66,4.66,0,0,1-1.64-.89,4.4,4.4,0,0,1-1.14-1.54,5.31,5.31,0,0,1-.44-2.25,4,4,0,0,1,.7-2.27,5.68,5.68,0,0,1,2.16-1.82,14.59,14.59,0,0,1,3.8-1.24,32.51,32.51,0,0,1,5.57-.54v-2a6.46,6.46,0,0,0-1.15-4.12,4.06,4.06,0,0,0-3.39-1.44,6.3,6.3,0,0,0-2.36.39,8.43,8.43,0,0,0-1.65.85,11,11,0,0,0-1.1.85,1.18,1.18,0,0,1-.71.39.64.64,0,0,1-.58-.35l-.32-.56a11.18,11.18,0,0,1,3.15-2.29,8.9,8.9,0,0,1,3.76-.77,6.8,6.8,0,0,1,2.69.49,5,5,0,0,1,1.92,1.42,6.14,6.14,0,0,1,1.14,2.22,10.22,10.22,0,0,1,.39,2.92v12.54Zm-7.7-1a7.83,7.83,0,0,0,2-.25,7.49,7.49,0,0,0,1.73-.67,8.47,8.47,0,0,0,1.49-1c.46-.4.92-.83,1.37-1.3v-5a34.86,34.86,0,0,0-4.71.41,14,14,0,0,0-3.25.92,4.77,4.77,0,0,0-1.89,1.39,3,3,0,0,0-.6,1.83,4.08,4.08,0,0,0,.31,1.67,3.25,3.25,0,0,0,.84,1.16,3.19,3.19,0,0,0,1.21.67A5,5,0,0,0,775,235.49Z"/><path class="cls-1" d="M805.66,219.82a1.41,1.41,0,0,1-.18.17.43.43,0,0,1-.24.07,1,1,0,0,1-.53-.27,8.06,8.06,0,0,0-.9-.57,8.26,8.26,0,0,0-1.39-.57,7.05,7.05,0,0,0-2-.26,7,7,0,0,0-2.94.59,5.82,5.82,0,0,0-2.15,1.69,7.75,7.75,0,0,0-1.34,2.68,13.86,13.86,0,0,0,0,7.12,7.46,7.46,0,0,0,1.34,2.64,5.56,5.56,0,0,0,2.09,1.64,6.61,6.61,0,0,0,2.74.56,7.08,7.08,0,0,0,2.32-.33,8.29,8.29,0,0,0,1.54-.71,7.44,7.44,0,0,0,1-.72,1,1,0,0,1,.57-.33.46.46,0,0,1,.38.19l.5.62a5.48,5.48,0,0,1-1.11,1.09,8.26,8.26,0,0,1-1.52.87,10.14,10.14,0,0,1-1.84.57,10,10,0,0,1-2.07.2,8.23,8.23,0,0,1-3.34-.66,7.31,7.31,0,0,1-2.6-1.94,8.94,8.94,0,0,1-1.69-3.11,14.46,14.46,0,0,1,0-8.21,8.88,8.88,0,0,1,1.68-3.13,7.59,7.59,0,0,1,2.72-2.05,8.92,8.92,0,0,1,3.68-.72,8.62,8.62,0,0,1,3.32.6,8.19,8.19,0,0,1,2.53,1.62Z"/><path class="cls-1" d="M814.42,236.51V208.34h1.83v12.2a10.7,10.7,0,0,1,3-2.62,7.47,7.47,0,0,1,3.82-1,7.26,7.26,0,0,1,2.78.5,5.17,5.17,0,0,1,2,1.45,6.64,6.64,0,0,1,1.19,2.29,10.42,10.42,0,0,1,.4,3v12.31h-1.83V224.2a6.62,6.62,0,0,0-1.23-4.25,4.53,4.53,0,0,0-3.77-1.54,6.63,6.63,0,0,0-3.5,1,10.13,10.13,0,0,0-2.89,2.68v14.44Z"/><path class="cls-1" d="M848.78,116.65c-5.17,4.09-9.1,6-12.22,6a6.45,6.45,0,0,1-1.33-.13c-3.11-.61-4.64-3.34-6-5.75-1.6-2.86-2.63-4.45-5-3.79-1.78.53-3.76,2.31-5.85,4.2-3.14,2.83-6.4,5.76-9.88,5.25a3.59,3.59,0,0,1-2.51-1.29c-.87-1.18-.63-2.78-.39-4.33,0-.3.09-.61.13-.91a.79.79,0,0,1,1.56.19c0,.32-.09.64-.14,1-.19,1.29-.38,2.51.1,3.16a2.12,2.12,0,0,0,1.48.67c2.77.41,5.73-2.27,8.6-4.86,2.23-2,4.33-3.9,6.46-4.54,3.65-1,5.3,1.92,6.76,4.53,1.24,2.22,2.52,4.5,4.92,5,2.78.56,6.8-1.28,12.26-5.6a.79.79,0,1,1,1,1.23Z"/></svg>