<svg id="Capa_1" data-name="Capa 1" xmlns="http://www.w3.org/2000/svg" viewBox="0 0 1000 200"><defs><style>.cls-1{fill:#1d1d1b;}</style></defs><path class="cls-1" d="M195.83,103.2c-4.39,26.08-9.38,55.64-7.05,67.15a1.31,1.31,0,0,1-1,1.54,1.15,1.15,0,0,1-.26,0,1.31,1.31,0,0,1-1.28-1c-2.42-12,2.38-40.51,7-68.1,3.59-21.31,8.07-47.84,5.27-49.88-9-3.69-28.75,26.63-52.78,81.05a1.36,1.36,0,0,1-2.21.3c-.54-.66-.57-.69,2.62-16.35l.26-1.23c.66-2.86,1.53-6.39,2.5-10.35,4.29-17.44,12.27-49.91,9-55.14-.11-.18-.22-.28-.32-.3-2.73-.64-11.62,2.28-35.92,42.36a729.46,729.46,0,0,0-37.25,70.32,1.31,1.31,0,0,1-1.2.77,1.75,1.75,0,0,1-1.25-.65c-.65-.93-1.47-2.09,7.84-28.07.29-.82.49-1.37.55-1.55,1.85-5,3.9-11,6.28-18,6.68-19.59,15.12-44.3,24.74-62.27-.27-.58.2-1.48,2.64-4.7a65.92,65.92,0,0,1,9.88-13.3c.55-.55,1.5-1.48,2.47-.62s1.07.94-5.53,9.4c-1.51,1.94-3.34,4.27-4.73,6.11-.42.72-.84,1.45-1.26,2.2a1.33,1.33,0,0,1-.39.77l-.07.06c-9.79,17.81-18.45,43.2-25.27,63.2-2.39,7-4.45,13-6.29,18,0,.15-.25.71-.56,1.56C89.87,143.25,88.16,148.27,87,152c16.63-34.36,55.85-107.21,71.23-103.68a3.08,3.08,0,0,1,2,1.48c3.54,5.69-2.1,30.28-8.71,57.14-1,4-1.83,7.47-2.49,10.28l-.24,1.21c-.35,1.69-.65,3.2-.93,4.55,17.37-38.08,39-77.7,51.73-72.5C203.94,52.25,201.91,67.12,195.83,103.2Z"/><path class="cls-1" d="M265.89,109.43c-8.31,9-15.6,13.08-21.68,12-7-1.21-10.05-8.59-11.22-11.38a.33.33,0,0,1,0-.06c-1.11.49-3.26,1.73-5.2,2.85-6.53,3.76-15.76,9.07-22.15,9.07a7.55,7.55,0,0,1-4-1c-1.75-1.13-2.44-3.06-2-5.46C200.92,108.71,212,97.58,221,95.86c4.11-.78,7.35.46,9.35,3.59a1.31,1.31,0,0,1-.4,1.81,1.33,1.33,0,0,1-1.81-.4c-1.41-2.22-3.59-3-6.65-2.43-7.81,1.49-18.18,11.72-19.31,17.52-.35,1.78.29,2.42.8,2.75,4.51,2.79,16.84-4.31,23.47-8.12,5.5-3.17,6.84-3.89,8-3.14.41.28.57.64,1,1.61,1,2.42,3.72,8.84,9.26,9.81,5.13.87,11.63-2.87,19.3-11.21a1.31,1.31,0,0,1,1.93,1.78Z"/><path class="cls-1" d="M301.34,109.14c-2.78,5.34-12.14,13.39-21.18,21.17-1.1.94-2.25,1.93-3.42,2.95-2.9,9-6.67,17.42-11.36,19.77a5.91,5.91,0,0,1-2.69.67,5.74,5.74,0,0,1-2.26-.48,3.21,3.21,0,0,1-2.12-2.49c-.6-3.8,5.61-9.8,16.13-18.94q1.71-5.41,3.43-12.33l.4-1.56c.52-1.88.86-3.8,1.23-5.84.26-1.44.52-2.89.85-4.35-8.39,10.3-13.17,14.13-16.11,13.11-1.5-.51-2.26-2.09-2.26-4.68,0-5.8,6-18.5,12.75-22a6.8,6.8,0,0,1,7.39.27,1.31,1.31,0,0,1,.32,1.82,1.29,1.29,0,0,1-1.82.32,4.2,4.2,0,0,0-4.68-.08c-5.73,3-11.34,14.63-11.34,19.71,0,1.66.36,2.16.49,2.21.67.24,3.84-.24,16.22-16,1.42-1.81,1.48-1.88,2.15-1.88a1.39,1.39,0,0,1,1.13.61c.41.61.3,1.29-.45,3a46,46,0,0,0-2.06,8.44c-.36,2-.74,4.08-1.29,6.06l-.38,1.51c-.66,2.68-1.41,5.57-2.25,8.48l.28-.25c8.86-7.61,18-15.49,20.57-20.38a1.3,1.3,0,0,1,1.77-.56A1.32,1.32,0,0,1,301.34,109.14Zm-28.59,27.62c-6.39,5.69-12.2,11.38-11.85,13.55,0,.1,0,.29.54.5a3.12,3.12,0,0,0,2.76-.12C267,149.28,269.86,144.61,272.75,136.76Z"/><path class="cls-1" d="M355.2,109.32c-8.22,11-14.51,16.4-19.19,16.4a5.16,5.16,0,0,1-.79-.06c-1.56-.21-3.72-1.2-5.09-4.74-3.07-7.92-1-25.06,3.06-39.56-5.83,10.76-11.87,21.87-19.86,31.17l-.62.7c-2.22,2.58-6.36,7.37-10.41,7.59H302a4.89,4.89,0,0,1-3.42-1.39c-2.89-2.89-2.19-7.72,1.91-13.26,4.34-5.88,12.92-12.75,17-10.58,1.37.73,2,2.2,1.84,4.39,4.23-6.45,7.95-13.32,11.6-20.06,2.57-4.73,5.21-9.57,8-14.26A30,30,0,0,1,342.5,60c0-.05.1-.07.14-.12a1.06,1.06,0,0,1,.21-.16l.22-.1.25-.07h.24a1.1,1.1,0,0,1,.25,0l.24.1.17.07s0,0,.06.05l.07,0a.83.83,0,0,1,.11.15,1.12,1.12,0,0,1,.17.2,1.57,1.57,0,0,1,.09.23,1,1,0,0,1,.07.24,1,1,0,0,1,0,.24,1,1,0,0,1,0,.25,1.09,1.09,0,0,1-.1.25,1,1,0,0,1-.06.16c-1.18,1.8-2.31,3.65-3.42,5.53-6.88,13.9-12.65,42.47-8.61,52.88.74,1.91,1.72,2.92,3,3.09,2.05.27,7.09-1.33,17.52-15.31a1.32,1.32,0,0,1,1.84-.27A1.3,1.3,0,0,1,355.2,109.32Zm-39.39-5.41c1.46-4.17,1-5.72.51-6a1.39,1.39,0,0,0-.62-.13c-2.43,0-8.71,4-13.09,9.95-1.53,2.08-4.81,7.19-2.19,9.82a2.26,2.26,0,0,0,1.75.65c2.93-.16,6.88-4.73,8.56-6.68l.63-.72q2.38-2.79,4.57-5.79A1.34,1.34,0,0,1,315.81,103.91Z"/><path class="cls-1" d="M415.47,109.43c-8.31,9-15.6,13.08-21.68,12-7-1.21-10.05-8.59-11.22-11.38l0-.06c-1.11.49-3.26,1.73-5.2,2.85-6.53,3.76-15.76,9.07-22.15,9.07a7.55,7.55,0,0,1-4-1c-1.75-1.13-2.44-3.06-2-5.46,1.31-6.74,12.34-17.87,21.39-19.59,4.11-.78,7.35.46,9.35,3.59a1.31,1.31,0,0,1-.4,1.81,1.33,1.33,0,0,1-1.81-.4c-1.41-2.22-3.59-3-6.65-2.43-7.81,1.49-18.18,11.72-19.31,17.52-.35,1.78.29,2.42.8,2.75,4.51,2.79,16.84-4.31,23.47-8.12,5.5-3.17,6.84-3.89,8-3.14.41.28.57.64,1,1.61,1,2.42,3.72,8.84,9.26,9.81,5.13.87,11.63-2.87,19.3-11.21a1.31,1.31,0,0,1,1.93,1.78Z"/><path class="cls-1" d="M573.49,61.13c-11.33,25.28-48.65,105.7-64.65,105.71a4.17,4.17,0,0,1-1.41-.23c-19.35-6.56,6-92.44,6.25-93.31l.33-.92c1.2-3.39,2.28-6.21,3.26-8.55-3.62,3.19-7.47,6-11.23,8.8-2.63,1.91-5.74,4-9,6.09a1.31,1.31,0,1,1-1.41-2.21c3.22-2.05,6.28-4.12,8.84-6a122.5,122.5,0,0,0,14.25-11.65,17.74,17.74,0,0,1,1.45-1.26c2.35-4.31,3.91-5.15,5.24-5.15a1.73,1.73,0,0,1,1.83,1.11c.49,1.4-.84,2.5-4.15,5.08l-.87.68a112.25,112.25,0,0,0-5.75,13.92l-.31.87c-6.57,21.48-21.31,85.45-7.88,90,6.68,2.31,29.28-29.24,62.82-104.08a1.31,1.31,0,0,1,2.39,1.08Z"/><path class="cls-1" d="M601.25,109.49c-5.13,4.8-17.35,11.24-26.41,11.24a13.15,13.15,0,0,1-5.47-1c-2.66-1.21-5.79-4.15-5.51-11.19a1.31,1.31,0,1,1,2.61.1c-.17,4.56,1.13,7.41,4,8.72,7.35,3.34,23.2-4.3,29-9.73a1.31,1.31,0,1,1,1.8,1.91ZM564.79,99.15c-.57-.55-.65-.63.4-3.41a1.25,1.25,0,0,1,.28-.71c.1-.26.21-.54.32-.85a1.31,1.31,0,0,1,2.45.94c-.24.61-.43,1.12-.59,1.55-.24.91-.72,2.44-1.44,2.74a1.34,1.34,0,0,1-.51.11A1.32,1.32,0,0,1,564.79,99.15Z"/><path class="cls-1" d="M630.88,109.36c-6.63,8.33-16.15,15.93-22.64,15.93a6.52,6.52,0,0,1-2.78-.57c-3.89-1.82-5.06-7.42-3.49-16.64-.3.42-.6.83-.91,1.24a1.31,1.31,0,1,1-2.1-1.56A91.75,91.75,0,0,0,607,94.41c6.35-14.63,17.24-37.93,19.93-38.79a1.58,1.58,0,0,1,1.46.33c.68.66.64,1.62-.18,4.49a1.19,1.19,0,0,1-.11.26c-1.17,2.15-2.27,4.36-3.37,6.6a118.22,118.22,0,0,1-6.11,11.29c-3.31,5.25-6.32,11.09-8.57,15.6-.59,1.17-1.16,2.29-1.72,3.35a64.25,64.25,0,0,0-3.41,8.87c-1.82,9-1.24,14.6,1.63,15.93,4.62,2.16,15.24-5.81,22.25-14.62a1.32,1.32,0,0,1,2.06,1.64Z"/><path class="cls-1" d="M660.82,109.36c-6.63,8.33-16.15,15.93-22.64,15.93a6.52,6.52,0,0,1-2.78-.57c-3.89-1.82-5.06-7.42-3.49-16.64-.3.42-.6.83-.91,1.24a1.31,1.31,0,0,1-2.1-1.56A91.75,91.75,0,0,0,637,94.41c6.35-14.63,17.24-37.93,19.93-38.79a1.58,1.58,0,0,1,1.46.33c.68.66.64,1.62-.18,4.49a1.19,1.19,0,0,1-.11.26c-1.17,2.15-2.27,4.36-3.37,6.6a118.22,118.22,0,0,1-6.11,11.29c-3.31,5.25-6.32,11.09-8.57,15.6-.59,1.17-1.16,2.29-1.73,3.35a66.55,66.55,0,0,0-3.4,8.87c-1.82,9-1.24,14.6,1.63,15.93,4.62,2.16,15.24-5.81,22.25-14.62a1.32,1.32,0,0,1,2.06,1.64Z"/><path class="cls-1" d="M721.46,109.43c-8.31,9-15.59,13.08-21.68,12-6.94-1.21-10-8.59-11.21-11.38a.33.33,0,0,1,0-.06c-1.11.49-3.26,1.73-5.21,2.85-6.53,3.76-15.75,9.07-22.15,9.07a7.55,7.55,0,0,1-4-1c-1.74-1.13-2.43-3.06-2-5.46,1.32-6.74,12.34-17.87,21.39-19.59,4.12-.78,7.36.46,9.36,3.59a1.31,1.31,0,0,1-.4,1.81,1.33,1.33,0,0,1-1.81-.4c-1.41-2.22-3.59-3-6.66-2.43-7.8,1.49-18.17,11.72-19.3,17.52-.35,1.78.29,2.42.79,2.75,4.52,2.79,16.85-4.31,23.48-8.12,5.5-3.17,6.84-3.89,8-3.14.42.28.57.64,1,1.61,1,2.42,3.71,8.84,9.25,9.81,5.14.87,11.64-2.87,19.3-11.21a1.31,1.31,0,0,1,1.93,1.78Z"/><path class="cls-1" d="M750.72,109.35C747,114,732.86,119.93,724.89,119c-2.29,8.24-8.61,29.72-12.4,31.54a2,2,0,0,1-.88.21,1.88,1.88,0,0,1-.83-.2c-3.25-1.47-1.82-8.52.23-16.88l.39-1.61c4.7-19,30-69.19,36.72-70.15a1.35,1.35,0,0,1,1.32.62c.45.75.28,1.08-1.36,4.26-.39.75-.75,1.44-.87,1.73a1.31,1.31,0,0,1-2.55-.08c-5.23,7.34-14.28,23.76-21.37,39.39,1.93,1.07,3,5,2.46,8,0,0-.06.26-.17.66,6.92.67,19.93-4.82,23.1-8.78a1.31,1.31,0,0,1,1.84-.2A1.28,1.28,0,0,1,750.72,109.35Zm-28.31,9.05-.22-.09a5.32,5.32,0,0,1-2.47-2.25A123.72,123.72,0,0,0,714,132.69l-.39,1.62c-2.37,9.64-2.31,12.7-1.88,13.6C714.27,145.08,720.14,126.63,722.41,118.4Zm-.08-8a7.41,7.41,0,0,0-.51,1.74c-.44,2.3.39,3.17,1.26,3.63,0-.18.07-.34.11-.49A7.65,7.65,0,0,0,722.33,110.45Z"/><path class="cls-1" d="M811.16,109.43c-8.31,9-15.59,13.08-21.67,12-7-1.21-10.06-8.59-11.22-11.38l0-.06c-1.11.49-3.26,1.73-5.21,2.85-6.53,3.76-15.75,9.07-22.15,9.07a7.57,7.57,0,0,1-4-1c-1.74-1.13-2.43-3.06-2-5.46,1.32-6.74,12.34-17.87,21.39-19.59,4.12-.78,7.36.46,9.36,3.59a1.31,1.31,0,0,1-.4,1.81,1.33,1.33,0,0,1-1.81-.4c-1.41-2.22-3.59-3-6.66-2.43-7.81,1.49-18.17,11.72-19.3,17.52-.35,1.78.29,2.42.79,2.75,4.52,2.79,16.85-4.31,23.47-8.12,5.51-3.17,6.85-3.89,8-3.14.42.28.57.64,1,1.61,1,2.42,3.71,8.84,9.25,9.81,5.13.87,11.64-2.87,19.3-11.21a1.31,1.31,0,0,1,1.93,1.78Z"/><path class="cls-1" d="M880.56,109.57c-8.61,6.81-15.17,10.06-20.36,10.06a11.43,11.43,0,0,1-2.21-.21c-5.19-1-7.73-5.58-10-9.59-2.67-4.77-4.38-7.42-8.26-6.32-3,.89-6.26,3.86-9.74,7-5.24,4.72-10.67,9.6-16.47,8.75a6,6,0,0,1-4.18-2.15c-1.46-2-1-4.63-.66-7.21.07-.51.15-1,.21-1.52a1.31,1.31,0,1,1,2.6.32c-.06.53-.14,1.06-.22,1.59-.33,2.14-.64,4.17.17,5.25a3.51,3.51,0,0,0,2.46,1.13c4.61.68,9.55-3.79,14.33-8.11,3.72-3.34,7.23-6.5,10.77-7.57,6.09-1.73,8.84,3.21,11.27,7.56,2.07,3.69,4.2,7.5,8.2,8.3,4.63.93,11.33-2.13,20.44-9.34a1.31,1.31,0,1,1,1.62,2.06Z"/><path class="cls-1" d="M919.35,109.36c-4.82,6-16.62,11.47-26.19,11.47a20.19,20.19,0,0,1-5.07-.6c-5.55-1.46-9-5.42-10-11.45,0,0,0,0,0,0-1.24-7.57,6.67-18.92,12.5-20,2.57-.49,4.49,1.05,5.13,4.1,1.67,7.54-8.45,13.87-14.84,16.54a10.38,10.38,0,0,0,7.9,8.34c9,2.37,23.42-3.61,28.55-10a1.31,1.31,0,0,1,2,1.64Zm-38.79-2.73c6.05-2.68,13.74-8,12.58-13.27-.39-1.83-1.1-2.13-1.65-2.13a2.55,2.55,0,0,0-.43,0C887.27,92,880.8,100.3,880.56,106.63Z"/><path class="cls-1" d="M848.78,88.69c-5.17,4.09-9.1,6-12.22,6a6.45,6.45,0,0,1-1.33-.13c-3.11-.61-4.64-3.34-6-5.75-1.6-2.86-2.63-4.45-5-3.79-1.78.53-3.76,2.31-5.85,4.2-3.14,2.83-6.4,5.76-9.88,5.25a3.59,3.59,0,0,1-2.51-1.29c-.87-1.18-.63-2.78-.39-4.33,0-.3.09-.61.13-.91a.79.79,0,0,1,1.56.19c0,.32-.09.64-.14,1-.19,1.29-.38,2.51.1,3.16a2.12,2.12,0,0,0,1.48.67c2.77.41,5.73-2.27,8.6-4.86,2.23-2,4.33-3.9,6.46-4.54,3.65-1,5.3,1.92,6.76,4.53,1.24,2.22,2.52,4.5,4.92,5,2.78.56,6.8-1.28,12.26-5.6a.79.79,0,1,1,1,1.23Z"/></svg>