<svg id="Capa_1" data-name="Capa 1" xmlns="http://www.w3.org/2000/svg" viewBox="0 0 1010 1010"><defs><style>.cls-1{stroke:#676766;}.cls-1,.cls-2,.cls-3{stroke-miterlimit:10;}.cls-2,.cls-3{fill:none;}.cls-2{stroke:#000;stroke-width:4px;}.cls-3{stroke:#010101;stroke-width:2px;}</style></defs><circle class="cls-1" cx="125.13" cy="517.85" r="20.23"/><path d="M265.58,843.56a10.79,10.79,0,0,0,1-3.73,11.17,11.17,0,0,0-.36-3.86,12,12,0,0,0-1.72-3.66,12.59,12.59,0,0,0-3.05-3.09,13.86,13.86,0,0,0-5.48-2.49,12.16,12.16,0,0,0-5.77.25,17.22,17.22,0,0,0-5.81,3.11,30.46,30.46,0,0,0-5.68,6.1,31,31,0,0,0-4.08,7.31,17.76,17.76,0,0,0-1.22,6.57,12.43,12.43,0,0,0,1.44,5.62,13.37,13.37,0,0,0,4,4.44,12.37,12.37,0,0,0,7.93,2.69,11,11,0,0,0,7.44-3.6l2.3,1.67a16.48,16.48,0,0,1-4.58,3.45,13.66,13.66,0,0,1-5,1.42,13.44,13.44,0,0,1-5.05-.56,16.68,16.68,0,0,1-4.88-2.48,15.79,15.79,0,0,1-4.82-5.48,15.53,15.53,0,0,1-1.71-6.81,20.87,20.87,0,0,1,1.39-7.71,33.24,33.24,0,0,1,4.5-8.22,32.27,32.27,0,0,1,6.37-6.73,20.71,20.71,0,0,1,6.88-3.62,15.2,15.2,0,0,1,7-.41,15.82,15.82,0,0,1,6.65,2.91,14.8,14.8,0,0,1,6.06,13.47,15.52,15.52,0,0,1-1.43,5.11Z"/><path d="M315.84,859a15.93,15.93,0,0,1,8.49,11.18,21.72,21.72,0,0,1,.05,7.89,29.55,29.55,0,0,1-3,8.71,30.36,30.36,0,0,1-5.32,7.51,21.84,21.84,0,0,1-6.49,4.64,16.57,16.57,0,0,1-7.06,1.54,16.48,16.48,0,0,1-12.69-6.54,16.63,16.63,0,0,1-2.87-6.62,21.71,21.71,0,0,1,0-8,30.26,30.26,0,0,1,3-8.73,29.45,29.45,0,0,1,5.36-7.54,21,21,0,0,1,6.46-4.52,16.53,16.53,0,0,1,7-1.41A16.09,16.09,0,0,1,315.84,859Zm-19,36.84a13.74,13.74,0,0,0,5.86,1.58,13,13,0,0,0,5.89-1.18,18,18,0,0,0,5.52-4,28.35,28.35,0,0,0,4.72-6.78,27.11,27.11,0,0,0,2.75-7.78,17.72,17.72,0,0,0,0-6.7,12.75,12.75,0,0,0-2.46-5.38,13.84,13.84,0,0,0-4.64-3.78,14,14,0,0,0-5.88-1.61,13.05,13.05,0,0,0-5.86,1.11,17.54,17.54,0,0,0-5.48,3.88,26.77,26.77,0,0,0-4.71,6.72,28.27,28.27,0,0,0-2.78,7.78,18.12,18.12,0,0,0-.06,6.8,13,13,0,0,0,2.45,5.48A13.66,13.66,0,0,0,296.83,895.8Z"/><path d="M373.66,929.46l-3.4-1.13L361,883.83l-12.39,37.29-2.6-.86,13.57-40.83,3.57,1.19L372.27,925l12.37-37.21,2.59.86Z"/><path d="M424.33,941.92a21.38,21.38,0,0,1-6.37-2.07,13.25,13.25,0,0,1-4.24-3.42,11.28,11.28,0,0,1-2.19-4.57,16.25,16.25,0,0,1-.23-5.57l2.66.47a13,13,0,0,0,.67,5,9.52,9.52,0,0,0,2.21,3.51,10.61,10.61,0,0,0,3.44,2.24,20.67,20.67,0,0,0,4.36,1.25,15.36,15.36,0,0,0,4.54.18,9.89,9.89,0,0,0,3.67-1.15,7.56,7.56,0,0,0,2.62-2.37,8.43,8.43,0,0,0,1.38-3.48,9,9,0,0,0,0-3.7,6.26,6.26,0,0,0-1.7-2.91,15.87,15.87,0,0,0-3.65-2.64q-2.33-1.29-5.84-2.83a31,31,0,0,1-4.88-2.69,13.69,13.69,0,0,1-3.18-3,8.45,8.45,0,0,1-1.54-3.42,12.09,12.09,0,0,1,1.74-8.49,10.27,10.27,0,0,1,3.19-3.07,12.26,12.26,0,0,1,4.41-1.58,16.14,16.14,0,0,1,5.31.1,17.5,17.5,0,0,1,5.06,1.67,12.64,12.64,0,0,1,3.73,2.92,11.44,11.44,0,0,1,2.25,4,13.22,13.22,0,0,1,.58,4.89l-2.59-.45a11.33,11.33,0,0,0-.66-3.39,8.9,8.9,0,0,0-1.72-2.92,10.31,10.31,0,0,0-2.87-2.22,13.65,13.65,0,0,0-4.09-1.34c-3.29-.58-5.91-.33-7.86.77a7.11,7.11,0,0,0-3.55,5.28,8.33,8.33,0,0,0,0,3,5.68,5.68,0,0,0,1.21,2.51,10.51,10.51,0,0,0,2.67,2.27,32.89,32.89,0,0,0,4.36,2.22l3.19,1.4c1.1.49,2.15,1,3.17,1.6a19.76,19.76,0,0,1,2.87,2,10.26,10.26,0,0,1,2.2,2.55,9.62,9.62,0,0,1,1.23,3.27,11.87,11.87,0,0,1-.06,4.19,12.56,12.56,0,0,1-1.87,4.8,11.87,11.87,0,0,1-3.46,3.42,12.66,12.66,0,0,1-4.65,1.81A15.47,15.47,0,0,1,424.33,941.92Z"/><path d="M488.77,948.47a18.06,18.06,0,0,1-5.7-1,11.58,11.58,0,0,1-3.88-2.3,10.53,10.53,0,0,1-2.4-3.3,17.55,17.55,0,0,1-1.28-4,25.52,25.52,0,0,1-.47-4.34c0-1.49,0-3,0-4.36l.76-25,2.73.08-.75,24.87a33.92,33.92,0,0,0,.53,8,11.54,11.54,0,0,0,2.11,4.88,7.53,7.53,0,0,0,3.55,2.47,17.27,17.27,0,0,0,4.88.77,18,18,0,0,0,5-.47,7.35,7.35,0,0,0,3.7-2.27,12.06,12.06,0,0,0,2.35-4.75,34.63,34.63,0,0,0,1-8l.75-24.86,2.74.09-.76,25a44.16,44.16,0,0,1-.89,7.92,15.69,15.69,0,0,1-2.43,5.84,10.29,10.29,0,0,1-4.49,3.56A16.76,16.76,0,0,1,488.77,948.47Z"/><path d="M562.61,944.12l-21.93,2.3-4.49-42.79,2.72-.28L543.07,943l19.21-2Z"/><path d="M612.47,893.51l-12.73,3L609,935.34l-2.66.63-9.22-38.8-12.61,3-.73-3.06,28-6.65Z"/><path d="M654.18,875.09a15.92,15.92,0,0,1,14,.93,21.5,21.5,0,0,1,6,5.14,29.68,29.68,0,0,1,4.6,8,30.47,30.47,0,0,1,2.17,9,22.2,22.2,0,0,1-.75,7.93,16.57,16.57,0,0,1-3.48,6.34,15.6,15.6,0,0,1-6,4.16,15.85,15.85,0,0,1-7.24,1.13,16.71,16.71,0,0,1-6.89-2.18,21.77,21.77,0,0,1-6-5.22,30.3,30.3,0,0,1-4.6-8,29.45,29.45,0,0,1-2.17-9,20.92,20.92,0,0,1,.83-7.83,15.91,15.91,0,0,1,9.54-10.31Zm15.33,38.52a13.8,13.8,0,0,0,5-3.39,13.12,13.12,0,0,0,3-5.22,17.93,17.93,0,0,0,.61-6.78,28,28,0,0,0-2-8,27.57,27.57,0,0,0-4.06-7.18,17.71,17.71,0,0,0-5.07-4.38,12.87,12.87,0,0,0-5.67-1.68,13.82,13.82,0,0,0-5.9,1,14.1,14.1,0,0,0-5.08,3.38,13.16,13.16,0,0,0-3,5.15,17.69,17.69,0,0,0-.67,6.67,27.47,27.47,0,0,0,2,8,28.21,28.21,0,0,0,4.06,7.21,18.16,18.16,0,0,0,5.09,4.5,13,13,0,0,0,5.74,1.75A13.8,13.8,0,0,0,669.51,913.61Z"/><path d="M746.3,877.14l-2.59,1.53-9-7.95a31.24,31.24,0,0,0-2.62-2.05,11.75,11.75,0,0,0-2.63-1.39,6.91,6.91,0,0,0-2.62-.44,5.54,5.54,0,0,0-2.63.83l-11.27,6.66L722.78,891l-2.35,1.39-21.89-37,14.5-8.58a21.35,21.35,0,0,1,4.18-1.89,10.35,10.35,0,0,1,4.28-.5,8.8,8.8,0,0,1,4.13,1.59,13.69,13.69,0,0,1,3.78,4.37,16.9,16.9,0,0,1,1.65,3.7,11.1,11.1,0,0,1,.49,3.59,9.06,9.06,0,0,1-.78,3.38,9.78,9.78,0,0,1-2.16,3,13.67,13.67,0,0,1,2.42.67,10.87,10.87,0,0,1,2,1,16.29,16.29,0,0,1,1.86,1.41L737,869Zm-35-5.52L722.49,865a21,21,0,0,0,3.85-2.82,7.7,7.7,0,0,0,2-3,6.3,6.3,0,0,0,.2-3.38,12.69,12.69,0,0,0-1.62-4c-1.51-2.55-3.29-4-5.34-4.22s-4.47.43-7.25,2.08l-11.86,7Z"/><path d="M799.71,837.24l-2.55,2.06-12.25-7.89L770.57,843q1.27,3.16,2.65,6.72c.91,2.37,1.79,4.64,2.62,6.79l-2.26,1.83q-2.07-5.51-4-10.79T765.67,837q-1.93-5.24-3.89-10.52l-4-10.76,3-2.42Zm-17-7.26L761,816.8l8.61,23.8Z"/><path d="M130.25,367.54c.77,0,1.54,0,2.31,0-.6-.53-1.16-1.06-1.68-1.6s-1-1.1-1.54-1.71l-25.52-31.43a2.3,2.3,0,0,1-.63-1.43,4.66,4.66,0,0,1,.42-1.57l2.16-5.33,53.46,21.74-2.58,6.33-39.28-16c-.52-.21-1.07-.45-1.66-.72s-1.18-.55-1.78-.85l26,31.88a3.1,3.1,0,0,1,.62,3.29l-.42,1a3.12,3.12,0,0,1-2.74,1.93l-41.14,5.07c.67.19,1.33.39,2,.61s1.21.42,1.74.64l39.28,16-2.58,6.33L83.19,380.08l2.16-5.33a4.86,4.86,0,0,1,.8-1.41,2.34,2.34,0,0,1,1.45-.59l40.4-5.06A14,14,0,0,1,130.25,367.54Z"/><path d="M201.74,280l-3.41,5a2.57,2.57,0,0,1-1.38,1.1,3.28,3.28,0,0,1-1.65.05l-14.54-3.42-14.6,21.35,8.46,12.31a3.07,3.07,0,0,1,.52,1.53,2.51,2.51,0,0,1-.49,1.71l-3.4,5L136.62,273l4.47-6.54Zm-39,19.09,12.14-17.77-24.49-5.78a42.27,42.27,0,0,1-5.46-1.64c.74.87,1.42,1.68,2,2.43s1.12,1.44,1.55,2.06Z"/><path d="M231.15,240.3a38.23,38.23,0,0,0,2.89-3.18,26.25,26.25,0,0,0,2.14-3.07,24.43,24.43,0,0,0,1.56-3.05,32.92,32.92,0,0,0,1.16-3.17l-9-9-6.34,6.3a1.71,1.71,0,0,1-1.18.55,1.48,1.48,0,0,1-1.1-.45l-3.12-3.14,12.56-12.47,15.61,15.71a32.09,32.09,0,0,1-1.29,5.13,30.09,30.09,0,0,1-2.19,4.93,36.4,36.4,0,0,1-3.24,4.87,54,54,0,0,1-4.44,5,29.81,29.81,0,0,1-9.68,6.57,26.48,26.48,0,0,1-10.65,2.07,27.4,27.4,0,0,1-10.75-2.47,32.63,32.63,0,0,1-9.92-7,33.42,33.42,0,0,1-7-10,25.89,25.89,0,0,1,0-21.6,33.13,33.13,0,0,1,7.16-10.11,36.46,36.46,0,0,1,4.86-4.12,29.06,29.06,0,0,1,4.89-2.81,25.33,25.33,0,0,1,4.91-1.65,28.79,28.79,0,0,1,5-.65l.93,4.08a2,2,0,0,1-.49,2,2.81,2.81,0,0,1-1.31.68c-.74.21-1.6.41-2.57.62a18.7,18.7,0,0,0-3.24,1,24.49,24.49,0,0,0-3.89,2.07,27.89,27.89,0,0,0-4.47,3.7,23.5,23.5,0,0,0-5.13,7.33,18.59,18.59,0,0,0-1.56,8,20.25,20.25,0,0,0,2,8.09,28.18,28.18,0,0,0,5.6,7.75,28.52,28.52,0,0,0,8,5.83,20.65,20.65,0,0,0,8.21,2.09,19,19,0,0,0,7.95-1.48A22.37,22.37,0,0,0,231.15,240.3Z"/><path d="M299.19,159.29a32.62,32.62,0,0,1,4.76,11,26.21,26.21,0,0,1,.16,10.79,25.76,25.76,0,0,1-4.29,9.82,31,31,0,0,1-8.54,8.09l-18,11.83-31.67-48.23,18-11.84a31.3,31.3,0,0,1,10.82-4.62,25.65,25.65,0,0,1,10.72,0,26.39,26.39,0,0,1,9.85,4.45A32.45,32.45,0,0,1,299.19,159.29Zm-6.69,4.4a28.86,28.86,0,0,0-6.43-7.15,19.84,19.84,0,0,0-7.31-3.67,17.46,17.46,0,0,0-7.82-.18,22.41,22.41,0,0,0-7.86,3.34l-11.47,7.53,24.73,37.66,11.47-7.52a22.31,22.31,0,0,0,6.19-5.9,17.73,17.73,0,0,0,3-7.21,20,20,0,0,0-.45-8.16A28.91,28.91,0,0,0,292.5,163.69Z"/><path d="M382.59,153.64,377,155.92a2.57,2.57,0,0,1-1.76.16,3.18,3.18,0,0,1-1.4-.87l-10.27-10.85-23.93,9.79.29,14.94a3.25,3.25,0,0,1-.41,1.56,2.55,2.55,0,0,1-1.35,1.16l-5.58,2.29L332.07,112l7.34-3Zm-43.07-5.53L359.44,140l-17.27-18.31a44.12,44.12,0,0,1-3.66-4.37c.15,1.13.26,2.18.35,3.14s.15,1.82.16,2.57Z"/><path d="M427.47,83.36l6.2-.67a2.65,2.65,0,0,1,1.74.34,3.24,3.24,0,0,1,1.1,1.22L457.07,123a26.29,26.29,0,0,1,1.34,2.86c.43,1,.85,2.11,1.26,3.22.12-1.17.26-2.31.42-3.4a25,25,0,0,1,.66-3.07L472.5,80.36a3.38,3.38,0,0,1,.82-1.36,2.53,2.53,0,0,1,1.62-.77l6.24-.67L464,137.45l-7,.76Z"/><path d="M522.07,136.11l-7.79-.33,2.41-57.65,7.79.32Z"/><path d="M564.48,134,589,138.36l-1.15,6.46-32.24-5.72,10.08-56.81,7.69,1.36Z"/><path d="M623.07,148.25l23.58,8.13-2.14,6.2-31-10.67,18.81-54.55,7.37,2.54Z"/><path d="M710.15,196.15l-5.28-2.92a2.53,2.53,0,0,1-1.22-1.27,3.22,3.22,0,0,1-.21-1.63l2-14.8L682.84,163l-11.46,9.59a3.2,3.2,0,0,1-1.47.66,2.52,2.52,0,0,1-1.75-.33L662.88,170,711,130.67l6.93,3.83Zm-22.69-37,18.84,10.41,3.44-24.92a42.78,42.78,0,0,1,1.11-5.6q-1.19,1.23-2.22,2.25c-.7.67-1.33,1.25-1.91,1.73Z"/><path d="M794.29,188.6l-4,4.94L768.8,176.09l-12.72,15.66,18.36,14.91-4,4.94-18.36-14.91-15.64,19.25L730.34,211l36.39-44.78Z"/><path d="M805.76,284.5l-4-4.52a2.59,2.59,0,0,1-.73-1.61,3.33,3.33,0,0,1,.35-1.6l6.85-13.28-17.16-19.35-14,5.21a3.14,3.14,0,0,1-1.6.14,2.58,2.58,0,0,1-1.55-.89l-4-4.52,58.46-21,5.26,5.93Zm-9-42.47L811,258.12l11.56-22.34a41.54,41.54,0,0,1,2.92-4.9c-1,.51-2,1-2.85,1.37s-1.67.73-2.37,1Z"/><path d="M872.43,280.57a3.9,3.9,0,0,1-.34,1.52l-20.66,50.79c.56-.43,1.11-.81,1.67-1.17s1.1-.69,1.63-1L890,310.06l3.46,5.9-49.8,29.15-2-3.4a3.43,3.43,0,0,1-.51-1.5,3.92,3.92,0,0,1,.32-1.6l20.65-50.73c-.55.38-1.1.75-1.64,1.1s-1,.66-1.51.93L823.5,310.68l-3.46-5.9,49.8-29.15,2,3.47A3.5,3.5,0,0,1,872.43,280.57Zm20.18,15.61a2.73,2.73,0,0,0,1.8,1.44,3.47,3.47,0,0,0,2.39-.49l2,3.4a11.09,11.09,0,0,1-3,1.23,7.84,7.84,0,0,1-2.83.16,5.83,5.83,0,0,1-2.48-1,6.85,6.85,0,0,1-1.94-2.17,7,7,0,0,1-.91-2.59,25.75,25.75,0,0,1-.26-2.72c0-.89-.09-1.73-.14-2.5a4.51,4.51,0,0,0-.56-2,2.67,2.67,0,0,0-1.82-1.39,3.58,3.58,0,0,0-2.39.49l-2-3.47a10.83,10.83,0,0,1,3-1.22,7.24,7.24,0,0,1,2.84-.12,6.1,6.1,0,0,1,2.5,1,6.48,6.48,0,0,1,2,2.15,7.1,7.1,0,0,1,.91,2.59c.13.91.21,1.81.25,2.69s.07,1.71.12,2.49A4.65,4.65,0,0,0,892.61,296.18Z"/><path d="M922.72,388.12l-6,2.14-9.3-26.06-18,6.44,7.53,21.1-5.77,2.05-7.52-21.1-18.55,6.62,9.3,26.06-6,2.14-11.94-33.45,54.35-19.39Z"/><circle class="cls-1" cx="883.95" cy="513" r="20.23"/><path class="cls-2" d="M396.82,534.31c1-19.77.57-27.72,1.2-35.42,1-12.64,2.92-22.26,2.35-26.65-1.54-11.86-10.46-5.77-10.49-12,0-7.14,3.72-14,2.64-20.88-2.55-16.18-9.21-10.88-9.95-14.77-4.22-22.22-11-22.41-13-21.08-2.24,1.5-3.53,10.64-4.83,24.73-.61,6.6-1.86,15.61-2.21,23,0,.58-1.47,10.5-5.72,42.81-.09.7-1.23.86-2.19.67l-1.28-.25-.09,0c-7.89-3-8-10.14-8.31-15.88-.63-11.95-1.18-15.92-4.8-26.61-3.54-10.46-10.64-13.51-13-13.94a2,2,0,0,0-1.15.07c-2.87,1.14-2,9.47-1.53,13.67.76,6.57.5,16.84,1.48,21.68C332.38,505,337.37,530,337.37,530c2.64,10.34,7.94,27.06,11.29,39.13,1.8,6.49,4.22,16.92,12.79,26.32a82.46,82.46,0,0,0,6.58,6,447.56,447.56,0,0,0,36.73,28.3c7.3,5,8.31,5.37,11.77,8.26,7,5.84,12.64,10.58,15.75,17.35,4.23,9.21,2.8,22.3-.07,48.47a10.64,10.64,0,0,0,.6,6c4.15,9.12,23.56,9.08,34.73,7.24,4.66-.76,28.25-4.65,34.64-20.93,2.47-6.29,1.12-11.21.16-18.41-4-30.45,7.58-36.55,4.16-54.92-5.3-28.57-40.9-53.89-65.35-59.82a78.7,78.7,0,0,1-28.42-11.83C406.69,546.94,402.16,540,396.82,534.31Z"/><path class="cls-2" d="M382.7,423.87c.87,10.15-6.2,24.46-5.62,87.33"/><path class="cls-2" d="M390.28,458.15c-2.35,26.64-2.82,43.67-4.09,64.81"/><path class="cls-2" d="M397,533.62c-14.61-12.83-19.61-23.79-29.53-31.43-10.13-7.81-12.73-7.37-14.31-7.07-7.4,1.4.11,17.31.64,18.66,6.67,17,16.81,24.51,24.07,37.5,11.62,20.81,7.31,14.11,16.89,30.4a164.59,164.59,0,0,0,18,24.9"/><path class="cls-2" d="M623.17,532.82c-3.16-18.71-3.6-26.33-5.07-33.59-2.41-11.91-5.32-20.83-5.24-25.08.22-11.5,9.72-6.86,9.07-12.83-.75-6.81-5.23-12.88-4.91-19.55.75-15.75,7.93-11.57,8.23-15.38,1.75-21.71,8.46-22.78,10.57-21.77,2.38,1.14,4.66,9.68,7.48,22.93,1.33,6.21,3.55,14.63,4.71,21.64.09.54,2.61,9.81,10.35,40,.17.65,1.31.66,2.24.35l1.24-.4c.06,0,0,0,.09,0,7.48-3.89,6.82-10.71,6.49-16.22-.69-11.46-.58-15.32,1.83-26,2.36-10.43,9.06-14.26,11.31-15a2.12,2.12,0,0,1,1.15-.07c3,.71,3,8.75,3,12.82,0,6.36,1.36,16.11.92,20.85-2.89,30.88-5.09,55.38-5.09,55.38-1.48,10.21-4.89,26.83-6.89,38.76-1.07,6.42-2.33,16.67-9.78,26.74A76.21,76.21,0,0,1,659,593a457.21,457.21,0,0,1-33.26,31.75c-6.68,5.71-7.63,6.2-10.74,9.4-6.26,6.47-11.35,11.73-13.69,18.58-3.18,9.33-.33,21.61,5.38,46.17a9.84,9.84,0,0,1,0,5.75c-3.1,9.23-22.33,11.73-33.58,11.43-4.7-.13-28.47-.76-36.59-15.44-3.13-5.66-2.34-10.53-2.17-17.52.67-29.54-11.51-33.84-10.14-51.78,2.12-27.91,34.59-56.67,58.14-65.5a81.8,81.8,0,0,0,26.84-15C614.78,546.14,618.51,539,623.17,532.82Z"/><path class="cls-2" d="M625.05,425.76c.24,9.78,8.81,22.5,15.13,82.47"/><path class="cls-2" d="M621.3,459.41c5.24,25.08,7.57,41.23,11.15,61.22"/><path class="cls-2" d="M623,532.18c13-14.13,16.8-25.22,25.78-33.79,9.18-8.76,11.8-8.68,13.39-8.6,7.49.37,1.79,16.5,1.42,17.86-4.75,17.06-13.95,25.54-19.72,38.87-9.23,21.34-5.69,14.39-13.39,31.15a162.75,162.75,0,0,1-15.05,26.07"/><path class="cls-3" d="M455.32,299.69c-6.26,15.55-14.56,45-6,75.21,4,14,12.21,21.68,20.13,30.68,2.5,2.84,18.25,18.76,22.94,16.18,11.84-6.53,16-39.84,10.68-63.61-1.16-5.25-7-23.25-23.29-41C470.24,306.72,458.06,292.88,455.32,299.69Z"/><path class="cls-3" d="M521.83,460c-12.67-5.72-3.44-49.69-3-51.57,2-9.12,6.08-23.54,17.65-43.7,13.52-23.55,40.24-52.35,53.26-57.21,6.83-2.55,6.19,18.95,5.49,40.67-.31,9.83-.74,20.85-5.06,34.62-4.41,14.05-10.48,23.35-17.23,33.7-6,9.15-12.13,18.44-22.8,27.87C539.93,453.4,528.86,463.2,521.83,460Z"/><path class="cls-3" d="M563.54,372.71C555.6,399.8,542,433.85,521.83,460"/><path class="cls-3" d="M492.42,421.76c5.7,21.46,6.68,45.52,4.22,70.64"/><path class="cls-3" d="M471.79,350.62c8.66,22.59,17.46,46.58,20.63,71.14"/><path class="cls-3" d="M482.08,510.2,521.83,460"/></svg>